<svg xmlns="http://www.w3.org/2000/svg" width="180" height="140" viewBox="0 0 180 140" fill="none">
  <defs>
    <linearGradient id="bgT" x1="20" y1="15" x2="160" y2="125" gradientUnits="userSpaceOnUse">
      <stop stop-color="#E4EDFF"/>
      <stop offset="1" stop-color="#DDF2EE"/>
    </linearGradient>
    <linearGradient id="lineT" x1="34" y1="91" x2="146" y2="49" gradientUnits="userSpaceOnUse">
      <stop stop-color="#2F70C8"/>
      <stop offset="0.55" stop-color="#5366D8"/>
      <stop offset="1" stop-color="#19AD99"/>
    </linearGradient>
  </defs>

  <rect x="18" y="18" width="144" height="104" rx="24" fill="url(#bgT)"/>

  <!-- Trend chart -->
  <path d="M36 98V42M36 98H146"
        stroke="#A9C4DC" stroke-width="2.5" stroke-linecap="round"/>

  <!-- Grid -->
  <path d="M36 79H146M36 60H146"
        stroke="#C9DDEA" stroke-width="1.5" stroke-dasharray="4 5"/>

  <!-- Series of RMSSD measurements -->
  <path d="M40 86
           C49 84 53 77 61 79
           C69 81 73 67 81 70
           C89 73 94 62 102 64
           C110 66 116 53 124 56
           C132 59 138 48 145 46"
        stroke="url(#lineT)" stroke-width="4.5" stroke-linecap="round" stroke-linejoin="round"/>

  <!-- Measurement points -->
  <circle cx="40" cy="86" r="4" fill="#2F70C8"/>
  <circle cx="61" cy="79" r="4" fill="#2F70C8"/>
  <circle cx="81" cy="70" r="4" fill="#5366D8"/>
  <circle cx="102" cy="64" r="4" fill="#5366D8"/>
  <circle cx="124" cy="56" r="4" fill="#19AD99"/>
  <circle cx="145" cy="46" r="5" fill="#19AD99"/>

  <!-- Trend direction -->
  <path d="M132 52L145 46L139 46"
        stroke="#19AD99" stroke-width="2.8" stroke-linecap="round" stroke-linejoin="round"/>
  <path d="M145 46L144 52"
        stroke="#19AD99" stroke-width="2.8" stroke-linecap="round"/>

  <!-- Timeline markers -->
  <path d="M50 98V103M75 98V103M100 98V103M125 98V103"
        stroke="#B1C9DC" stroke-width="2" stroke-linecap="round"/>
</svg>